<?xml version="1.0" encoding="UTF-8" ?>
<svg
  width="54px"
  height="30px"
  viewBox="0 0 54 30"
  version="1.1"
  xmlns="http://www.w3.org/2000/svg"
  xmlns:xlink="http://www.w3.org/1999/xlink"
>
    <!-- Generator: Sketch 49.3 (51167) - http://www.bohemiancoding.com/sketch -->
    <title>Group 15</title>
    <desc>Created with Sketch.</desc>
    <defs />
    <g
    id="Page-1"
    stroke="none"
    stroke-width="1"
    fill="none"
    fill-rule="evenodd"
  >
        <g
      id="Home-page"
      transform="translate(-692.000000, -3768.000000)"
      stroke="#fff"
    >
            <g id="Work-at-Tata" transform="translate(0.000000, 3072.000000)">
                <g id="Careers-1" transform="translate(539.000000, 583.000000)">
                    <g
            id="Group-2"
            transform="translate(114.000000, 113.000000)"
          >
                        <g id="Group-13">
                            <g
                id="Group-15"
                transform="translate(40.000000, 0.000000)"
              >
                                <circle
                  id="Oval"
                  cx="26"
                  cy="7.49152542"
                  r="6.99152542"
                />
                                <path
                  d="M13.220339,29.0847458 C14.5330447,20.8587571 18.7258934,16.7457627 25.798885,16.7457627 C32.8718766,16.7457627 37.1988019,20.8587571 38.779661,29.0847458"
                  id="Path-27"
                  stroke-linecap="round"
                />
                                <circle
                  id="Oval"
                  cx="9.25423729"
                  cy="8.37288136"
                  r="5.22881356"
                />
                                <path
                  d="M0,28.2033898 C1.08308819,21.1525424 4.5425268,17.6271186 10.3783158,17.6271186 C11.7434186,17.6271186 12.9845449,17.8200234 14.1016949,18.2058328"
                  id="Path-27"
                  stroke-linecap="round"
                />
                                <ellipse
                  id="Oval"
                  transform="translate(41.423729, 8.372881) scale(-1, 1) translate(-41.423729, -8.372881) "
                  cx="41.4237288"
                  cy="8.37288136"
                  rx="5.66949153"
                  ry="5.22881356"
                />
                                <path
                  d="M37.8983051,27.3220339 C38.9813933,20.2711864 42.4408319,16.7457627 48.2766209,16.7457627 C49.6417237,16.7457627 50.88285,16.9386674 52,17.3244769"
                  id="Path-27"
                  stroke-linecap="round"
                  transform="translate(44.949153, 22.033898) scale(-1, 1) translate(-44.949153, -22.033898) "
                />
                            </g>
                        </g>
                    </g>
                </g>
            </g>
        </g>
    </g>
</svg>
